<svg width="32" height="32" viewBox="0 0 32 32" fill="none" xmlns="http://www.w3.org/2000/svg">
  <!-- Outer gear -->
  <circle cx="16" cy="16" r="15" fill="white" stroke="#000000" stroke-width="1" />
  <path d="M16 1 
           A15 15 0 0 1 31 16 
           A15 15 0 0 1 16 31 
           A15 15 0 0 1 1 16 
           A15 15 0 0 1 16 1z" 
         fill="none" stroke="#000000" stroke-width="1.2" />
  
  <!-- Inner gear -->
  <circle cx="16" cy="16" r="10" fill="white" stroke="#000000" stroke-width="1" />
  
  <!-- Gear teeth -->
  <path d="M16 1 L16 3M22 2.5 L21 4.5M27 5.5 L25 7M30 11 L28 12M31 16 L29 16M30 21 L28 20M27 26.5 L25 25M22 29.5 L21 27.5M16 31 L16 29M10 29.5 L11 27.5M5 26.5 L7 25M2 21 L4 20M1 16 L3 16M2 11 L4 12M5 5.5 L7 7M10 2.5 L11 4.5" 
        stroke="#000000" stroke-width="1" />
  
  <!-- Oil lamp -->
  <path d="M16 10 L16 16" stroke="#000000" stroke-width="1" />
  <ellipse cx="16" cy="9" rx="1.5" ry="2" fill="#000000" />
  
  <!-- Open book -->
  <path d="M12 16 C14 15 18 15 20 16 L20 18 C18 17 14 17 12 18 Z" fill="#000000" />
  
  <!-- Flame from lamp -->
  <path d="M14 8 L16 6 L18 8" stroke="#000000" stroke-width="0.8" />
  
  <!-- Olive branch -->
  <path d="M25 14 Q24 16 22 17 Q21 18 24 18 Q23 19 21 19 Q20 20 23 20" 
        stroke="#000000" stroke-width="0.8" fill="none" />
</svg> 